<svg xmlns="http://www.w3.org/2000/svg" width="89" height="89" viewBox="0 0 89 89">
  <g id="Group_162" data-name="Group 162" transform="translate(-0.8 -1)">
    <rect id="Rectangle_322" data-name="Rectangle 322" width="89" height="65" rx="3" transform="translate(0.8 25)" fill="#ffc661"/>
    <path id="Path_111" data-name="Path 111" d="M85.38,69.01H14.646A8.842,8.842,0,0,1,5.8,60.168V13.012a8.577,8.577,0,0,1,.884-3.8A8.842,8.842,0,0,0,1,17.433V64.589a8.842,8.842,0,0,0,8.842,8.842H80.576a8.842,8.842,0,0,0,7.928-5.04A8.547,8.547,0,0,1,85.38,69.01Z" transform="translate(0 15.987)" fill="#e49f4e"/>
    <path id="Path_112" data-name="Path 112" d="M80.011,9H9.277A8.842,8.842,0,0,0,1.29,14.128L42.375,55.213a3.213,3.213,0,0,0,4.539,0L88,14.128A8.842,8.842,0,0,0,80.011,9Z" transform="translate(0.565 15.578)" fill="#96d7ff"/>
    <path id="Path_113" data-name="Path 113" d="M88.488,48.476,59.87,19.947a3.154,3.154,0,0,0-4.509,0L44.839,30.439,34.317,19.947a3.154,3.154,0,0,0-4.509,0L1.19,48.476a8.842,8.842,0,0,0,8.282,5.895H80.206a8.842,8.842,0,0,0,8.282-5.895Z" transform="translate(0.37 35.047)" fill="#ff9797"/>
    <path id="Path_114" data-name="Path 114" d="M82,37.745l.825-.206.531-.206a5.9,5.9,0,0,0,.648-.265l.531-.295.589-.354.472-.354.5-.442a1.974,1.974,0,0,0,.442-.413l.442-.5a5.4,5.4,0,0,0,.383-.472l.383-.589.265-.5v-.206a9.018,9.018,0,0,1-3.095.589H14.187a8.842,8.842,0,0,1-8.37-6.1L1.19,32.057c.147.354.324.737.5,1.09a.589.589,0,0,1,0,.236l.619.943.206.236a8.989,8.989,0,0,0,1.415,1.385,3.743,3.743,0,0,0,.354.295l.589.354.766.442.589.236,1,.295h.5a7.4,7.4,0,0,0,1.739.383H80.206a6.838,6.838,0,0,0,1.356,0A2.357,2.357,0,0,0,82,37.745Z" transform="translate(0.37 51.466)" fill="#e47979"/>
    <path id="Path_115" data-name="Path 115" d="M70.77,9H4.81V24.532L35.52,55.213a3.213,3.213,0,0,0,4.539,0L70.77,24.532Z" transform="translate(7.419 15.578)" fill="#86c3ef"/>
    <path id="Path_116" data-name="Path 116" d="M64.945,9.842V43.588l-27.2,27.2a3.213,3.213,0,0,1-4.539,0L6,43.588V9.842A8.842,8.842,0,0,1,14.842,1H56.1A8.842,8.842,0,0,1,64.945,9.842Z" transform="translate(9.736 0)" fill="#eef5fd"/>
    <path id="Path_117" data-name="Path 117" d="M9.684,46.653V12.789a8.842,8.842,0,0,1,8.842-8.842H59.788a8.577,8.577,0,0,1,3.6.8A8.842,8.842,0,0,0,56.1,1H14.842A8.842,8.842,0,0,0,6,9.842V43.588l27.2,27.2a3.212,3.212,0,0,0,1.385.766Z" transform="translate(9.736 0)" fill="#d7e2f2"/>
    <path id="Path_118" data-name="Path 118" d="M42.73,11.275H13.257a2.947,2.947,0,1,1,0-5.895H42.73a2.947,2.947,0,1,1,0,5.895Zm0,11.907H13.257a2.947,2.947,0,1,1,0-5.895H42.73a2.947,2.947,0,1,1,0,5.895Zm0,11.907H13.257a2.947,2.947,0,0,1,0-5.895H42.73a2.947,2.947,0,0,1,0,5.895Z" transform="translate(18.129 8.529)" fill="#d7e2f2"/>
    <path id="Path_119" data-name="Path 119" d="M42.42,10.895H12.947a2.947,2.947,0,1,1,0-5.895H42.42a2.947,2.947,0,1,1,0,5.895Zm0,11.789H12.947a2.947,2.947,0,1,1,0-5.895H42.42a2.947,2.947,0,1,1,0,5.895Zm0,11.789H12.947a2.947,2.947,0,1,1,0-5.895H42.42a2.947,2.947,0,1,1,0,5.895Z" transform="translate(17.525 7.789)" fill="#ffc661"/>
  </g>
</svg>
