<svg xmlns="http://www.w3.org/2000/svg" width="98.242" height="98.171" viewBox="0 0 98.242 98.171">
  <g id="icon-support" transform="translate(4.4 4.4)">
    <g id="Group_462" data-name="Group 462" transform="translate(-0.4 -0.4)">
      <g id="Ellipse_74" data-name="Ellipse 74" fill="#54c0eb" stroke="#4d406f" stroke-width="4">
        <ellipse cx="45.121" cy="45.085" rx="45.121" ry="45.085" stroke="none"/>
        <ellipse cx="45.121" cy="45.085" rx="47.121" ry="47.085" fill="none"/>
      </g>
      <path id="Path_399" data-name="Path 399" d="M108.249,148.315a17.923,17.923,0,1,0-17.685-.018A36.022,36.022,0,0,0,66,169.864a45.211,45.211,0,0,0,66.83,0A35.95,35.95,0,0,0,108.249,148.315Z" transform="translate(-54.294 -94.45)" fill="#fff"/>
    </g>
    <path id="Path_400" data-name="Path 400" d="M150.7,97.815h-2.8a24.108,24.108,0,0,0-46.753,0h-2.8A1.741,1.741,0,0,0,96.6,99.553v8.5a1.741,1.741,0,0,0,1.738,1.738h3.547a1.733,1.733,0,0,0,1.72-2.022,21.31,21.31,0,1,1,41.84,0,1.727,1.727,0,0,0,1.7,2.04h.319c-.745,2.306-2.643,6.6-6.793,8.9-3.476,1.933-7.857,2.111-13.018.5a5.69,5.69,0,0,0-2.926-3.246,2.519,2.519,0,1,0-2.253,4.5c1.525.763,3.831.922,4.789.089a23.5,23.5,0,0,0,6.917,1.153,14.36,14.36,0,0,0,7.165-1.774c4.877-2.714,6.882-7.751,7.591-10.145H150.7a1.741,1.741,0,0,0,1.738-1.738v-8.5A1.741,1.741,0,0,0,150.7,97.815Z" transform="translate(-79.796 -65.811)" fill="#4d406f"/>
  </g>
</svg>
