<svg id="icon-instagram" xmlns="http://www.w3.org/2000/svg" xmlns:xlink="http://www.w3.org/1999/xlink" width="24" height="24" viewBox="0 0 24 24">
  <defs>
    <radialGradient id="radial-gradient" cx="0.065" cy="0.978" r="1.27" gradientUnits="objectBoundingBox">
      <stop offset="0.09" stop-color="#fa8f21"/>
      <stop offset="0.78" stop-color="#d82d7e"/>
    </radialGradient>
    <radialGradient id="radial-gradient-2" cx="0.693" cy="0.946" r="1.117" gradientUnits="objectBoundingBox">
      <stop offset="0.64" stop-color="#8c3aaa" stop-opacity="0"/>
      <stop offset="1" stop-color="#8c3aaa"/>
    </radialGradient>
  </defs>
  <path id="Path_16" data-name="Path 16" d="M6.086,23.915a8.08,8.08,0,0,1-2.718-.5,4.548,4.548,0,0,1-1.683-1.095,4.513,4.513,0,0,1-1.1-1.683,8.08,8.08,0,0,1-.5-2.718C.014,16.373,0,15.91,0,12S.016,7.629.085,6.085a8.126,8.126,0,0,1,.5-2.717,4.565,4.565,0,0,1,1.1-1.684A4.519,4.519,0,0,1,3.367.588a8.08,8.08,0,0,1,2.718-.5C7.629.014,8.092,0,12,0s4.371.016,5.915.085a8.126,8.126,0,0,1,2.718.5,4.53,4.53,0,0,1,1.683,1.095,4.533,4.533,0,0,1,1.1,1.684,8.08,8.08,0,0,1,.5,2.718C23.986,7.629,24,8.092,24,12s-.014,4.371-.085,5.915a8.118,8.118,0,0,1-.5,2.718,4.847,4.847,0,0,1-2.779,2.778,8.08,8.08,0,0,1-2.718.5C16.372,23.986,15.908,24,12,24s-4.371-.014-5.914-.085" transform="translate(0 0)" fill="url(#radial-gradient)"/>
  <path id="Path_17" data-name="Path 17" d="M6.086,23.915a8.08,8.08,0,0,1-2.718-.5,4.548,4.548,0,0,1-1.683-1.095,4.513,4.513,0,0,1-1.1-1.683,8.08,8.08,0,0,1-.5-2.718C.014,16.373,0,15.91,0,12S.016,7.629.085,6.085a8.126,8.126,0,0,1,.5-2.717,4.565,4.565,0,0,1,1.1-1.684A4.519,4.519,0,0,1,3.367.588a8.08,8.08,0,0,1,2.718-.5C7.629.014,8.092,0,12,0s4.371.016,5.915.085a8.126,8.126,0,0,1,2.718.5,4.53,4.53,0,0,1,1.683,1.095,4.533,4.533,0,0,1,1.1,1.684,8.08,8.08,0,0,1,.5,2.718C23.986,7.629,24,8.092,24,12s-.014,4.371-.085,5.915a8.118,8.118,0,0,1-.5,2.718,4.847,4.847,0,0,1-2.779,2.778,8.08,8.08,0,0,1-2.718.5C16.372,23.986,15.908,24,12,24s-4.371-.014-5.914-.085" transform="translate(0 0)" fill="url(#radial-gradient-2)"/>
  <path id="Path_18" data-name="Path 18" d="M441.966,448.694a3.058,3.058,0,1,1,3.057,3.058,3.058,3.058,0,0,1-3.057-3.058m-1.653,0a4.71,4.71,0,1,0,4.71-4.71,4.71,4.71,0,0,0-4.71,4.71m8.506-4.9a1.1,1.1,0,1,0,1.1-1.1h0a1.1,1.1,0,0,0-1.1,1.1m-7.5,12.363a5.069,5.069,0,0,1-1.7-.315,3.037,3.037,0,0,1-1.741-1.741,5.065,5.065,0,0,1-.315-1.7c-.045-.967-.053-1.257-.053-3.707s.01-2.739.053-3.707a5.1,5.1,0,0,1,.315-1.7,3.036,3.036,0,0,1,1.741-1.741,5.066,5.066,0,0,1,1.7-.315c.967-.045,1.257-.053,3.706-.053s2.739.009,3.707.053a5.1,5.1,0,0,1,1.7.315,3.036,3.036,0,0,1,1.741,1.741,5.064,5.064,0,0,1,.315,1.7c.045.968.053,1.257.053,3.707s-.009,2.739-.053,3.707a5.088,5.088,0,0,1-.315,1.7,3.037,3.037,0,0,1-1.741,1.74,5.065,5.065,0,0,1-1.7.315c-.967.045-1.257.053-3.707.053s-2.739-.009-3.706-.053m-.076-16.584a6.726,6.726,0,0,0-2.227.426,4.69,4.69,0,0,0-2.683,2.683,6.73,6.73,0,0,0-.426,2.227c-.045.978-.055,1.291-.055,3.782s.01,2.8.055,3.782a6.729,6.729,0,0,0,.426,2.227,4.69,4.69,0,0,0,2.683,2.683,6.732,6.732,0,0,0,2.227.426c.978.045,1.291.055,3.782.055s2.8-.01,3.782-.055a6.73,6.73,0,0,0,2.227-.426,4.69,4.69,0,0,0,2.683-2.683,6.707,6.707,0,0,0,.426-2.227c.045-.979.055-1.291.055-3.782s-.01-2.8-.055-3.782a6.726,6.726,0,0,0-.426-2.227A4.691,4.691,0,0,0,451.033,440a6.717,6.717,0,0,0-2.227-.426c-.978-.045-1.291-.055-3.781-.055s-2.8.01-3.783.055" transform="translate(-433 -436.648)" fill="#fff"/>
</svg>
