<svg xmlns="http://www.w3.org/2000/svg" width="89.443" height="89.623" viewBox="0 0 89.443 89.623">
  <g id="icon-reset_password" transform="translate(-8.5 -8.388)">
    <path id="Path_333" data-name="Path 333" d="M93.566,66.495H80.109v-27.5a4.337,4.337,0,0,0-4.331-4.331H71.769V28.638a16.025,16.025,0,1,0-32.049,0v6.025H35.714a4.337,4.337,0,0,0-4.331,4.331v27.5H17.922a5.2,5.2,0,0,0-5.2,5.2V93.635a5.2,5.2,0,0,0,5.2,5.2H93.566a5.2,5.2,0,0,0,5.2-5.2V71.691a5.2,5.2,0,0,0-5.2-5.2ZM45.783,28.638a9.961,9.961,0,1,1,19.922,0v6.025H45.783Z" transform="translate(-0.821 -0.821)" fill="#e6e7e8"/>
    <rect id="Rectangle_502" data-name="Rectangle 502" width="84.307" height="30.605" rx="5" transform="translate(9.306 63.076)" fill="#fa759e"/>
    <path id="Path_334" data-name="Path 334" d="M31.238,91.385a1.474,1.474,0,0,1,.363,1.007,1.537,1.537,0,0,1-.363,1.024,1.184,1.184,0,0,1-1.025.4l-3.238-.161,1.785,2.677a1.345,1.345,0,0,1,.231.725,1.251,1.251,0,0,1-.483.975,1.6,1.6,0,0,1-1.074.413,1.189,1.189,0,0,1-1.123-.693l-1.45-2.874-1.45,2.874a1.231,1.231,0,0,1-1.123.725,1.6,1.6,0,0,1-1.074-.413,1.242,1.242,0,0,1-.247-1.7l1.781-2.711-3.238.161a1.2,1.2,0,0,1-1.024-.38,1.472,1.472,0,0,1-.363-1.008,1.531,1.531,0,0,1,.363-1.024,1.185,1.185,0,0,1,1.024-.4l3.238.161-1.784-2.671a1.241,1.241,0,0,1-.231-.725,1.209,1.209,0,0,1,.479-.958,1.643,1.643,0,0,1,1.074-.4,1.191,1.191,0,0,1,1.123.694l1.45,2.874,1.45-2.874a1.209,1.209,0,0,1,1.156-.725,1.565,1.565,0,0,1,1.041.413,1.254,1.254,0,0,1,.483.975,1.241,1.241,0,0,1-.231.725l-1.785,2.676,3.238-.161a1.209,1.209,0,0,1,1.028.377Z" transform="translate(-1.868 -15.146)" fill="#fff"/>
    <path id="Path_335" data-name="Path 335" d="M49.77,91.385a1.474,1.474,0,0,1,.363,1.007,1.537,1.537,0,0,1-.363,1.024,1.184,1.184,0,0,1-1.025.4l-3.238-.161,1.785,2.677a1.343,1.343,0,0,1,.23.725,1.251,1.251,0,0,1-.479.975,1.6,1.6,0,0,1-1.074.413,1.189,1.189,0,0,1-1.123-.693L43.4,94.874l-1.45,2.874a1.231,1.231,0,0,1-1.123.725,1.6,1.6,0,0,1-1.074-.413,1.243,1.243,0,0,1-.248-1.7l1.778-2.711-3.238.161a1.2,1.2,0,0,1-1.024-.38,1.472,1.472,0,0,1-.364-1.008,1.531,1.531,0,0,1,.364-1.024,1.185,1.185,0,0,1,1.024-.4l3.238.161-1.785-2.671a1.24,1.24,0,0,1-.23-.725,1.209,1.209,0,0,1,.479-.958,1.643,1.643,0,0,1,1.074-.4,1.191,1.191,0,0,1,1.123.694l1.45,2.874,1.45-2.874A1.209,1.209,0,0,1,46,86.38a1.565,1.565,0,0,1,1.041.413,1.253,1.253,0,0,1,.479.975,1.24,1.24,0,0,1-.23.725L45.5,91.169l3.238-.161a1.209,1.209,0,0,1,1.031.377Z" transform="translate(-5.467 -15.146)" fill="#fff"/>
    <path id="Path_336" data-name="Path 336" d="M68.3,91.385a1.471,1.471,0,0,1,.364,1.007,1.531,1.531,0,0,1-.364,1.024,1.181,1.181,0,0,1-1.024.4l-3.238-.161,1.785,2.677a1.343,1.343,0,0,1,.23.725,1.251,1.251,0,0,1-.479.975,1.6,1.6,0,0,1-1.074.413,1.189,1.189,0,0,1-1.123-.693l-1.45-2.874-1.45,2.874a1.231,1.231,0,0,1-1.123.725,1.6,1.6,0,0,1-1.074-.413,1.243,1.243,0,0,1-.248-1.7l1.778-2.711-3.238.161a1.2,1.2,0,0,1-1.024-.38,1.469,1.469,0,0,1-.364-1.008A1.531,1.531,0,0,1,55.55,91.4a1.185,1.185,0,0,1,1.024-.4l3.238.161-1.785-2.671a1.24,1.24,0,0,1-.23-.725,1.209,1.209,0,0,1,.479-.958,1.643,1.643,0,0,1,1.074-.4,1.191,1.191,0,0,1,1.123.694l1.45,2.874,1.45-2.874a1.209,1.209,0,0,1,1.156-.725,1.566,1.566,0,0,1,1.041.413,1.253,1.253,0,0,1,.479.975,1.24,1.24,0,0,1-.23.725l-1.785,2.676,3.238-.161A1.209,1.209,0,0,1,68.3,91.385Z" transform="translate(-9.067 -15.146)" fill="#fff"/>
    <path id="Path_337" data-name="Path 337" d="M86.838,91.385a1.471,1.471,0,0,1,.364,1.007,1.531,1.531,0,0,1-.364,1.024,1.181,1.181,0,0,1-1.024.4l-3.238-.161,1.785,2.677a1.343,1.343,0,0,1,.23.725,1.251,1.251,0,0,1-.479.975,1.6,1.6,0,0,1-1.074.413,1.189,1.189,0,0,1-1.123-.693l-1.45-2.874-1.45,2.874a1.232,1.232,0,0,1-1.123.725,1.6,1.6,0,0,1-1.074-.413,1.243,1.243,0,0,1-.248-1.7l1.776-2.711-3.238.161a1.2,1.2,0,0,1-1.024-.38,1.469,1.469,0,0,1-.364-1.008,1.531,1.531,0,0,1,.364-1.024,1.184,1.184,0,0,1,1.024-.4l3.238.161L76.56,88.491a1.24,1.24,0,0,1-.23-.725,1.209,1.209,0,0,1,.479-.958,1.643,1.643,0,0,1,1.074-.4,1.191,1.191,0,0,1,1.123.694l1.45,2.874,1.45-2.874a1.209,1.209,0,0,1,1.156-.725,1.566,1.566,0,0,1,1.041.413,1.253,1.253,0,0,1,.479.975,1.24,1.24,0,0,1-.23.725l-1.785,2.676,3.238-.161A1.209,1.209,0,0,1,86.838,91.385Z" transform="translate(-12.666 -15.146)" fill="#fff"/>
    <path id="Path_338" data-name="Path 338" d="M91.384,105.332a1.516,1.516,0,0,1-.479-1.189,1.57,1.57,0,0,1,.479-1.209,2.041,2.041,0,0,1,1.438-.446h6.806a2.04,2.04,0,0,1,1.437.446,1.567,1.567,0,0,1,.483,1.209,1.514,1.514,0,0,1-.483,1.189,2.09,2.09,0,0,1-1.437.429h-6.81A2.1,2.1,0,0,1,91.384,105.332Z" transform="translate(-16.003 -18.274)" fill="#fff"/>
    <path id="Path_339" data-name="Path 339" d="M68.986,31.439V24.547a10.827,10.827,0,1,0-21.654,0v6.892H43V24.547a15.158,15.158,0,0,1,30.316,0v6.892Z" transform="translate(-6.7 -0.194)" fill="#d4fbff"/>
    <path id="Path_340" data-name="Path 340" d="M76.422,36.753H35.879a3.223,3.223,0,0,0-3.223,3.223V68.582H79.645V39.976A3.223,3.223,0,0,0,76.422,36.753Z" transform="translate(-4.691 -5.509)" fill="#6dc9f7"/>
    <path id="Path_341" data-name="Path 341" d="M76.422,36.753H35.879a3.223,3.223,0,0,0-3.223,3.223v2.417a3.223,3.223,0,0,1,3.223-3.223H76.422a3.223,3.223,0,0,1,3.223,3.223V39.976A3.223,3.223,0,0,0,76.422,36.753Z" transform="translate(-4.691 -5.509)" fill="#fff"/>
    <path id="Path_342" data-name="Path 342" d="M89.583,62.27H75.76V34.47a4.034,4.034,0,0,0-4.029-4.029H67.423V24.352a15.964,15.964,0,0,0-31.929,0v6.086H31.188a4.034,4.034,0,0,0-4.029,4.029v27.8H13.335A4.84,4.84,0,0,0,8.5,67.1V89.648a4.84,4.84,0,0,0,4.835,4.835H26.362a.806.806,0,0,0,0-1.612H13.335a3.223,3.223,0,0,1-3.223-3.223V67.1a3.223,3.223,0,0,1,3.223-3.223H89.583A3.223,3.223,0,0,1,92.806,67.1V89.651a3.223,3.223,0,0,1-3.223,3.223h-50.6a.806.806,0,0,0,0,1.612h50.6a4.84,4.84,0,0,0,4.835-4.835V67.1A4.84,4.84,0,0,0,89.583,62.27ZM37.106,24.352a14.353,14.353,0,1,1,28.705,0v6.086H63.092V24.352a11.633,11.633,0,0,0-23.266,0v6.086h-2.72Zm4.331,6.086V24.352a10.022,10.022,0,0,1,20.043,0v6.086ZM28.77,62.267v-27.8a2.417,2.417,0,0,1,2.417-2.417H71.731a2.417,2.417,0,0,1,2.417,2.417v27.8Z" fill="#3a2c60"/>
    <path id="Path_343" data-name="Path 343" d="M40.743,113.236H34.473a.806.806,0,0,0,0,1.612h6.271a.806.806,0,0,0,0-1.612Z" transform="translate(-4.888 -20.362)" fill="#3a2c60"/>
    <path id="Path_344" data-name="Path 344" d="M60.648,47.681a4.835,4.835,0,0,0-2.1,9.191v5.75a2.1,2.1,0,0,0,4.19,0v-5.75a4.835,4.835,0,0,0-2.1-9.191Z" transform="translate(-9.189 -7.631)" fill="#3a2c60"/>
  </g>
</svg>
