<svg xmlns="http://www.w3.org/2000/svg" width="99.475" height="68.413" viewBox="0 0 99.475 68.413">
  <g id="icon-ticket" transform="translate(0 -0.032)" opacity="0.9">
    <g id="Group_451" data-name="Group 451" transform="translate(5.114 5.179)">
      <path id="Path_382" data-name="Path 382" d="M108.337,21.689H24.583a2.822,2.822,0,0,0-2.8,2.854V78.012a2.823,2.823,0,0,0,2.8,2.854h83.754a2.822,2.822,0,0,0,2.8-2.854V24.526A2.83,2.83,0,0,0,108.337,21.689Z" transform="translate(-21.786 -21.689)" fill="#fff"/>
      <rect id="Rectangle_528" data-name="Rectangle 528" width="76.623" height="46.223" transform="translate(6.364 6.477)" fill="#6dc9f7"/>
      <g id="Group_452" data-name="Group 452" transform="translate(62.885 38.595)">
        <path id="Path_394" data-name="Path 394" d="M296.4,163.459a4.34,4.34,0,0,1,0,3.514,1.758,1.758,0,0,0,0-3.514Z" transform="translate(-288.038 -160.843)" fill="#fff"/>
        <path id="Path_395" data-name="Path 395" d="M250.064,163.394a1.757,1.757,0,1,0,1.757,1.757A1.756,1.756,0,0,0,250.064,163.394Z" transform="translate(-245.699 -160.786)" fill="#fff"/>
        <path id="Path_396" data-name="Path 396" d="M234.834,141.608a4.407,4.407,0,0,0-1.958.48,4.371,4.371,0,1,0,.008,7.786,1.28,1.28,0,0,0,.248.139,4.236,4.236,0,0,0,1.7.34,4.373,4.373,0,1,0,0-8.745Zm.054,6.13a4.34,4.34,0,0,0,0-3.514,1.758,1.758,0,0,1,0,3.514Zm-4,0a1.757,1.757,0,1,1,1.757-1.757A1.756,1.756,0,0,1,230.887,147.738Z" transform="translate(-226.522 -141.608)" fill="#3a2c60"/>
      </g>
    </g>
    <path id="Path_387" data-name="Path 387" d="M91.185.032H8.29A8.3,8.3,0,0,0,0,8.322V60.172a8.3,8.3,0,0,0,8.29,8.273h82.9a8.3,8.3,0,0,0,8.29-8.29V8.322A8.3,8.3,0,0,0,91.185.032Zm2.769,60.157a2.765,2.765,0,0,1-2.769,2.769H8.29a2.765,2.765,0,0,1-2.769-2.769V8.322A2.765,2.765,0,0,1,8.29,5.553h82.9a2.765,2.765,0,0,1,2.769,2.769V60.189Z" transform="translate(0 0)" fill="#3a2c60"/>
    <path id="Path_388" data-name="Path 388" d="M85.928,76.962h-1.8a2.283,2.283,0,0,0-2.286,2.286v1.8a2.283,2.283,0,0,0,2.286,2.286h1.8a2.283,2.283,0,0,0,2.286-2.286v-1.8A2.292,2.292,0,0,0,85.928,76.962Z" transform="translate(-59.537 -55.633)" fill="#fff"/>
    <path id="Path_389" data-name="Path 389" d="M68.7,55.176H66.9a6.853,6.853,0,0,0-6.845,6.845v1.8A6.853,6.853,0,0,0,66.9,70.665h1.8a6.853,6.853,0,0,0,6.845-6.845v-1.8A6.844,6.844,0,0,0,68.7,55.176Zm2.286,8.644A2.283,2.283,0,0,1,68.7,66.106H66.9a2.283,2.283,0,0,1-2.286-2.286v-1.8A2.283,2.283,0,0,1,66.9,59.735h1.8a2.283,2.283,0,0,1,2.286,2.286Z" transform="translate(-42.31 -38.406)" fill="#3a2c60"/>
    <path id="Path_390" data-name="Path 390" d="M67.8,158.388H62.79a2.733,2.733,0,0,1,0-5.466H67.8a2.733,2.733,0,0,1,0,5.466Z" transform="translate(-41.204 -116.538)" fill="#3a2c60"/>
    <path id="Path_391" data-name="Path 391" d="M81.776,198.21H62.854a2.733,2.733,0,0,1,0-5.466H81.776a2.733,2.733,0,0,1,0,5.466Z" transform="translate(-41.252 -146.397)" fill="#3a2c60"/>
    <path id="Path_392" data-name="Path 392" d="M123.465,158.388h-5.013a2.733,2.733,0,0,1,0-5.466h5.013a2.733,2.733,0,0,1,0,5.466Z" transform="translate(-82.941 -116.538)" fill="#3a2c60"/>
    <path id="Path_393" data-name="Path 393" d="M179.061,158.388h-5.013a2.733,2.733,0,0,1,0-5.466h5.013a2.733,2.733,0,0,1,0,5.466Z" transform="translate(-124.628 -116.538)" fill="#3a2c60"/>
  </g>
</svg>
