<svg xmlns="http://www.w3.org/2000/svg" width="24" height="19.502" viewBox="0 0 24 19.502">
  <path id="Path_124" data-name="Path 124" d="M24,2.3a10.259,10.259,0,0,1-2.835.777A4.893,4.893,0,0,0,23.329.36,9.833,9.833,0,0,1,20.21,1.551,4.92,4.92,0,0,0,11.7,4.917a5.066,5.066,0,0,0,.114,1.121A13.927,13.927,0,0,1,1.671.892,4.922,4.922,0,0,0,3.182,7.468,4.859,4.859,0,0,1,.96,6.862v.054A4.943,4.943,0,0,0,4.9,11.75a4.911,4.911,0,0,1-1.29.162,4.35,4.35,0,0,1-.931-.084,4.967,4.967,0,0,0,4.6,3.427,9.886,9.886,0,0,1-6.1,2.1A9.216,9.216,0,0,1,0,17.287a13.852,13.852,0,0,0,7.548,2.208,13.907,13.907,0,0,0,14-14c0-.218-.008-.427-.018-.636A9.816,9.816,0,0,0,24,2.3Z" transform="translate(0 0.007)" fill="#03a9f4"/>
</svg>
